<svg width="195" height="80" viewBox="0 0 195 35" fill="none" xmlns="http://www.w3.org/2000/svg">
<path d="M0.871804 31V1.90909H19.1104V5.6875H5.26101V14.5511H18.1587V18.3153H5.26101V27.2216H19.2809V31H0.871804ZM36.9819 14.5085L33.1325 15.1903C32.9715 14.6979 32.7158 14.2292 32.3654 13.7841C32.0245 13.339 31.5605 12.9744 30.9734 12.6903C30.3862 12.4062 29.6523 12.2642 28.7717 12.2642C27.569 12.2642 26.5652 12.5341 25.7603 13.0739C24.9554 13.6042 24.5529 14.2907 24.5529 15.1335C24.5529 15.8627 24.8228 16.4498 25.3626 16.8949C25.9023 17.34 26.7736 17.7045 27.9762 17.9886L31.4421 18.7841C33.4497 19.2481 34.9459 19.9631 35.9308 20.929C36.9156 21.8949 37.408 23.1496 37.408 24.6932C37.408 26 37.0292 27.1648 36.2717 28.1875C35.5236 29.2008 34.4772 29.9962 33.1325 30.5739C31.7972 31.1515 30.2489 31.4403 28.4876 31.4403C26.0444 31.4403 24.051 30.9195 22.5075 29.8778C20.9639 28.8267 20.0169 27.3352 19.6665 25.4034L23.7717 24.7784C24.0273 25.8485 24.5529 26.6581 25.3484 27.2074C26.1438 27.7472 27.1808 28.017 28.4592 28.017C29.8512 28.017 30.9639 27.7282 31.7972 27.1506C32.6306 26.5634 33.0472 25.8485 33.0472 25.0057C33.0472 24.3239 32.7915 23.7509 32.2802 23.2869C31.7783 22.8229 31.0065 22.4725 29.9648 22.2358L26.2717 21.4261C24.2357 20.9621 22.73 20.2235 21.7546 19.2102C20.7887 18.197 20.3058 16.9138 20.3058 15.3608C20.3058 14.0729 20.6656 12.946 21.3853 11.9801C22.105 11.0142 23.0993 10.2614 24.3683 9.72159C25.6372 9.17235 27.0908 8.89773 28.729 8.89773C31.087 8.89773 32.9431 9.40909 34.2972 10.4318C35.6514 11.4451 36.5463 12.804 36.9819 14.5085ZM38.0778 31V9.18182H42.1829V12.6477H42.4102C42.8079 11.4735 43.5086 10.5502 44.5124 9.87784C45.5257 9.19602 46.6715 8.85511 47.9499 8.85511C48.2151 8.85511 48.5276 8.86458 48.8874 8.88352C49.2567 8.90246 49.5456 8.92614 49.7539 8.95455V13.017C49.5835 12.9697 49.2804 12.9176 48.8448 12.8608C48.4092 12.7945 47.9736 12.7614 47.538 12.7614C46.5342 12.7614 45.6393 12.9744 44.8533 13.4006C44.0768 13.8172 43.4613 14.3996 43.0067 15.1477C42.5522 15.8864 42.3249 16.7292 42.3249 17.6761V31H38.0778ZM55.5835 31.483C54.2009 31.483 52.9509 31.2273 51.8335 30.7159C50.716 30.1951 49.8306 29.4422 49.1772 28.4574C48.5333 27.4725 48.2113 26.2652 48.2113 24.8352C48.2113 23.6042 48.448 22.5909 48.9215 21.7955C49.395 21 50.0342 20.3703 50.8391 19.9062C51.6441 19.4422 52.5437 19.0919 53.538 18.8551C54.5323 18.6184 55.5456 18.4384 56.5778 18.3153C57.8846 18.1638 58.9452 18.0407 59.7596 17.946C60.574 17.8419 61.1658 17.6761 61.5352 17.4489C61.9045 17.2216 62.0891 16.8523 62.0891 16.3409V16.2415C62.0891 15.0009 61.7388 14.0398 61.038 13.358C60.3467 12.6761 59.3145 12.3352 57.9414 12.3352C56.5115 12.3352 55.3846 12.6525 54.5607 13.2869C53.7463 13.9119 53.1829 14.608 52.8704 15.375L48.8789 14.4659C49.3524 13.1402 50.0437 12.0701 50.9528 11.2557C51.8713 10.4318 52.9272 9.83523 54.1204 9.46591C55.3136 9.08712 56.5683 8.89773 57.8846 8.89773C58.7558 8.89773 59.6791 9.00189 60.6545 9.21023C61.6393 9.40909 62.5579 9.77841 63.4102 10.3182C64.2719 10.858 64.9774 11.6297 65.5266 12.6335C66.0759 13.6278 66.3505 14.9205 66.3505 16.5114V31H62.2028V28.017H62.0323C61.7577 28.5663 61.3458 29.1061 60.7965 29.6364C60.2473 30.1667 59.5418 30.607 58.68 30.9574C57.8183 31.3078 56.7861 31.483 55.5835 31.483ZM56.5067 28.0739C57.681 28.0739 58.6848 27.8419 59.5181 27.3778C60.3609 26.9138 61.0001 26.3078 61.4357 25.5597C61.8808 24.8021 62.1033 23.9924 62.1033 23.1307V20.3182C61.9518 20.4697 61.6583 20.6117 61.2227 20.7443C60.7965 20.8674 60.3088 20.9763 59.7596 21.071C59.2103 21.1562 58.6753 21.2367 58.1545 21.3125C57.6336 21.3788 57.198 21.4356 56.8477 21.483C56.0238 21.5871 55.271 21.7623 54.5891 22.0085C53.9168 22.2547 53.377 22.6098 52.9698 23.0739C52.5721 23.5284 52.3732 24.1345 52.3732 24.892C52.3732 25.9432 52.7615 26.7386 53.538 27.2784C54.3145 27.8087 55.3041 28.0739 56.5067 28.0739ZM71.9137 23.5994L71.8853 18.4148H72.6239L81.3171 9.18182H86.4023L76.4876 19.6932H75.82L71.9137 23.5994ZM68.0075 31V1.90909H72.2546V31H68.0075ZM81.7859 31L73.9734 20.6307L76.8995 17.6619L86.9989 31H81.7859ZM101.855 31V34.608H83.3754V31H101.855ZM101.012 31V1.90909H119.052V5.6875H105.402V14.5511H117.76V18.3153H105.402V31H101.012ZM126.38 31.483C124.998 31.483 123.748 31.2273 122.63 30.7159C121.513 30.1951 120.627 29.4422 119.974 28.4574C119.33 27.4725 119.008 26.2652 119.008 24.8352C119.008 23.6042 119.245 22.5909 119.718 21.7955C120.192 21 120.831 20.3703 121.636 19.9062C122.441 19.4422 123.341 19.0919 124.335 18.8551C125.329 18.6184 126.342 18.4384 127.375 18.3153C128.681 18.1638 129.742 18.0407 130.556 17.946C131.371 17.8419 131.963 17.6761 132.332 17.4489C132.701 17.2216 132.886 16.8523 132.886 16.3409V16.2415C132.886 15.0009 132.536 14.0398 131.835 13.358C131.144 12.6761 130.111 12.3352 128.738 12.3352C127.308 12.3352 126.181 12.6525 125.358 13.2869C124.543 13.9119 123.98 14.608 123.667 15.375L119.676 14.4659C120.149 13.1402 120.841 12.0701 121.75 11.2557C122.668 10.4318 123.724 9.83523 124.917 9.46591C126.11 9.08712 127.365 8.89773 128.681 8.89773C129.553 8.89773 130.476 9.00189 131.451 9.21023C132.436 9.40909 133.355 9.77841 134.207 10.3182C135.069 10.858 135.774 11.6297 136.324 12.6335C136.873 13.6278 137.147 14.9205 137.147 16.5114V31H133V28.017H132.829C132.555 28.5663 132.143 29.1061 131.593 29.6364C131.044 30.1667 130.339 30.607 129.477 30.9574C128.615 31.3078 127.583 31.483 126.38 31.483ZM127.304 28.0739C128.478 28.0739 129.482 27.8419 130.315 27.3778C131.158 26.9138 131.797 26.3078 132.233 25.5597C132.678 24.8021 132.9 23.9924 132.9 23.1307V20.3182C132.749 20.4697 132.455 20.6117 132.02 20.7443C131.593 20.8674 131.106 20.9763 130.556 21.071C130.007 21.1562 129.472 21.2367 128.951 21.3125C128.431 21.3788 127.995 21.4356 127.645 21.483C126.821 21.5871 126.068 21.7623 125.386 22.0085C124.714 22.2547 124.174 22.6098 123.767 23.0739C123.369 23.5284 123.17 24.1345 123.17 24.892C123.17 25.9432 123.558 26.7386 124.335 27.2784C125.111 27.8087 126.101 28.0739 127.304 28.0739ZM143.051 18.0455V31H138.804V1.90909H142.995V12.733H143.265C143.776 11.5587 144.557 10.6259 145.608 9.93466C146.659 9.24337 148.033 8.89773 149.728 8.89773C151.224 8.89773 152.531 9.20549 153.648 9.82102C154.775 10.4366 155.646 11.3551 156.262 12.5767C156.887 13.7888 157.199 15.304 157.199 17.1222V31H152.952V17.6335C152.952 16.0331 152.54 14.7926 151.716 13.9119C150.892 13.0218 149.747 12.5767 148.279 12.5767C147.275 12.5767 146.375 12.7898 145.58 13.2159C144.794 13.642 144.174 14.267 143.719 15.0909C143.274 15.9053 143.051 16.8902 143.051 18.0455ZM158.867 31V9.18182H163.114V31H158.867ZM161.012 5.81534C160.273 5.81534 159.639 5.56913 159.108 5.0767C158.587 4.57481 158.327 3.97822 158.327 3.28693C158.327 2.58617 158.587 1.98958 159.108 1.49716C159.639 0.995264 160.273 0.744318 161.012 0.744318C161.75 0.744318 162.38 0.995264 162.901 1.49716C163.431 1.98958 163.696 2.58617 163.696 3.28693C163.696 3.97822 163.431 4.57481 162.901 5.0767C162.38 5.56913 161.75 5.81534 161.012 5.81534ZM164.828 31V9.18182H168.904V12.733H169.174C169.629 11.5303 170.372 10.5928 171.404 9.92045C172.437 9.23864 173.672 8.89773 175.112 8.89773C176.57 8.89773 177.792 9.23864 178.777 9.92045C179.771 10.6023 180.505 11.5398 180.978 12.733H181.206C181.726 11.5682 182.555 10.6402 183.691 9.94886C184.828 9.24811 186.182 8.89773 187.754 8.89773C189.733 8.89773 191.348 9.51799 192.598 10.7585C193.857 11.9991 194.487 13.8693 194.487 16.3693V31H190.24V16.767C190.24 15.2898 189.837 14.2197 189.032 13.5568C188.227 12.8939 187.266 12.5625 186.149 12.5625C184.766 12.5625 183.691 12.9886 182.924 13.8409C182.157 14.6837 181.774 15.768 181.774 17.0938V31H177.541V16.4972C177.541 15.3134 177.172 14.3617 176.433 13.642C175.694 12.9223 174.733 12.5625 173.549 12.5625C172.744 12.5625 172.001 12.7756 171.319 13.2017C170.647 13.6184 170.102 14.2008 169.686 14.9489C169.279 15.697 169.075 16.5634 169.075 17.5483V31H164.828Z" fill="white"/>
</svg>
